<?xml version="1.0" encoding="UTF-8"?>
<svg version="1.1" xmlns="http://www.w3.org/2000/svg" width="512" height="512">
<path d="M0 0 C168.96 0 337.92 0 512 0 C512 168.96 512 337.92 512 512 C343.04 512 174.08 512 0 512 C0 343.04 0 174.08 0 0 Z " fill="#D7DFE3" transform="translate(0,0)"/>
<path d="M0 0 C168.96 0 337.92 0 512 0 C512 168.96 512 337.92 512 512 C343.04 512 174.08 512 0 512 C0 343.04 0 174.08 0 0 Z M17 119 C16.67 131.21 16.34 143.42 16 156 C15.67 157.32 15.34 158.64 15 160 C12.69 160.66 10.38 161.32 8 162 C8 167.61 8 173.22 8 179 C9.98 179.99 11.96 180.98 14 182 C16 184 16 184 16.24905568 186.10279083 C16.24862364 186.98059959 16.2481916 187.85840836 16.24774647 188.76281738 C16.25212847 189.7743006 16.25651046 190.78578382 16.26102525 191.82791805 C16.25300725 193.50734666 16.25300725 193.50734666 16.24482727 195.22070312 C16.24709184 196.40367005 16.24935642 197.58663698 16.25168961 198.80545139 C16.25608521 202.09956661 16.25153044 205.39345673 16.243379 208.68755078 C16.2368072 212.23648373 16.2417948 215.78540102 16.24560547 219.33433533 C16.25083605 225.48884131 16.24932676 231.64331583 16.24382973 237.79782104 C16.23562488 247.52938415 16.24683714 257.26087919 16.2610321 266.99243164 C16.26563366 270.32124313 16.27008397 273.6500548 16.27447033 276.97886658 C16.27556847 277.81087115 16.27666661 278.64287573 16.27779803 279.50009257 C16.28997902 288.97678431 16.29752568 298.45347825 16.3034668 307.93017578 C16.30428889 309.22994797 16.30428889 309.22994797 16.30512758 310.55597818 C16.313579 324.58469742 16.31025314 338.61339744 16.30431245 352.64211679 C16.29869119 367.04540848 16.31225003 381.44860359 16.34186524 395.85186577 C16.35939393 404.73477596 16.36105412 413.61740676 16.34222009 422.50031561 C16.33059707 428.59342187 16.33709016 434.68634001 16.3576893 440.77942187 C16.36898874 444.29265553 16.37223282 447.80540411 16.35351372 451.31861687 C16.33740118 455.13400267 16.35205794 458.94809968 16.3742218 462.76342773 C16.3621843 463.86520103 16.35014681 464.96697433 16.33774453 466.1021347 C16.43466991 474.30028902 18.31906392 481.02358263 23.98974305 487.14946651 C30.13678447 492.97950253 36.23551404 495.46300112 44.67381001 495.38311005 C45.41839862 495.38806956 46.16298724 495.39302908 46.93013915 495.39813888 C49.42115574 495.41107574 51.91163461 495.40271654 54.40266418 495.39440918 C56.20824507 495.39929899 58.01382282 495.40548922 59.81939524 495.41286707 C64.77821002 495.42927829 69.73686593 495.42694623 74.69569838 495.4214921 C80.04484806 495.41882336 85.39395525 495.4333508 90.74308777 495.44558716 C101.22179436 495.46665012 111.70044563 495.4711815 122.17917088 495.46939927 C130.69627892 495.46809205 139.21336969 495.47189376 147.73047447 495.47932434 C150.1830998 495.48142352 152.63572514 495.48352112 155.08835047 495.48561716 C156.91942276 495.48718245 156.91942276 495.48718245 158.7874864 495.48877937 C181.87898866 495.50768532 204.97045917 495.50663048 228.06196596 495.49981004 C249.18742362 495.49423465 270.31276 495.51505925 291.43818931 495.54817051 C313.12792767 495.58190247 334.81760794 495.59707643 356.50737303 495.59245348 C368.68524087 495.59020825 380.86299662 495.59545981 393.04084206 495.62034607 C403.40859923 495.64135278 413.77618287 495.64495736 424.14394716 495.62604648 C429.43332189 495.61688476 434.72237299 495.61575923 440.01172256 495.63640213 C444.85596074 495.65509872 449.69960993 495.65062316 454.54382559 495.62785631 C456.29412002 495.62366726 458.04445949 495.62788085 459.79470632 495.64145225 C470.15551256 495.71630409 479.146695 495.47357861 487.12779838 488.01024008 C495.16274178 479.63991143 495.43434106 471.80084078 495.36076355 460.64308167 C495.36207682 459.17216322 495.36470941 457.70124545 495.36854553 456.23033142 C495.37526586 452.18877492 495.36324608 448.1474574 495.34821819 444.10593124 C495.33511176 439.6805993 495.33950245 435.25527825 495.34167194 430.82993221 C495.34326654 422.24079002 495.32941829 413.65174196 495.31016796 405.06262394 C495.28856644 395.12698578 495.28618363 385.19140414 495.28381348 375.2557373 C495.26806299 349.02464329 495.22617964 322.79357023 495.1875 296.5625 C495.125625 237.966875 495.06375 179.37125 495 119 C337.26 119 179.52 119 17 119 Z " fill="#161616" transform="translate(0,0)"/>
<path d="M0 0 C1.54801235 -0.00576537 3.09601786 -0.01370928 4.64400911 -0.02363622 C8.88626682 -0.044476 13.1279609 -0.03420763 17.37022042 -0.01870513 C21.9497279 -0.00738373 26.52913903 -0.02485824 31.10862732 -0.03860474 C40.07526104 -0.06083325 49.04168545 -0.05603767 58.00832736 -0.04154153 C65.29593871 -0.03024778 72.58349142 -0.02871899 79.87110901 -0.03416061 C80.90847577 -0.03492678 81.94584253 -0.03569294 83.01464465 -0.03648233 C85.12206155 -0.03808096 87.22947843 -0.03970203 89.33689529 -0.04134528 C109.09632588 -0.05560165 128.85564048 -0.03921179 148.61505204 -0.01234345 C165.56809246 0.00999521 182.52096169 0.00611505 199.47399902 -0.01693726 C219.16290909 -0.04369721 238.8517175 -0.05422837 258.54064322 -0.03887594 C260.64029024 -0.0372832 262.73993729 -0.03571134 264.83958435 -0.03416061 C265.8726401 -0.03338924 266.90569585 -0.03261786 267.97005633 -0.03182311 C275.24858146 -0.0275067 282.5270421 -0.03479139 289.80555725 -0.04655838 C298.676158 -0.06058406 307.54653753 -0.05678194 316.41711295 -0.03015466 C320.94272894 -0.01701743 325.46797617 -0.01186246 329.9935894 -0.02840042 C334.13766064 -0.04331504 338.28102179 -0.03508729 342.42502874 -0.00851266 C343.92289607 -0.00293405 345.42082357 -0.00575435 346.91865212 -0.0178916 C355.06317923 -0.07881868 361.6217639 -0.07736899 367.85534668 5.63491821 C371.25601242 9.38437019 372.97120706 11.77256405 373.01647949 16.80581665 C373.02608704 17.66721252 373.03569458 18.5286084 373.04559326 19.41610718 C373.05196808 20.81605927 373.05196808 20.81605927 373.05847168 22.24429321 C373.06417175 23.20385925 373.06987183 24.16342529 373.07574463 25.15206909 C373.0852027 27.18637995 373.0917318 29.22070619 373.09558105 31.2550354 C373.10526425 34.35850038 373.13627088 37.46129689 373.16784668 40.56460571 C373.17437897 42.54116428 373.17962855 44.51772759 373.18347168 46.49429321 C373.19581848 47.41949768 373.20816528 48.34470215 373.22088623 49.29794312 C373.20060876 55.2033146 372.53608409 59.68968138 368.39050293 64.24429321 C363.17515959 68.28376339 360.19012183 69.88390365 353.54460526 69.89218712 C351.58587443 69.90186046 351.58587443 69.90186046 349.58757329 69.91172922 C348.13494024 69.90878681 346.68230756 69.90565136 345.22967529 69.90234375 C343.68924701 69.90607908 342.14882062 69.91068013 340.60839725 69.9160744 C336.36866929 69.92833457 332.12902006 69.92804038 327.88927841 69.92568564 C323.31927009 69.92527823 318.74928727 69.93630943 314.17929077 69.94580078 C305.22286662 69.96242872 296.26646879 69.96791115 287.31003049 69.96902554 C280.03044162 69.96997524 272.75086145 69.97408166 265.47127533 69.98042679 C244.83919319 69.99804475 224.20713187 70.00726489 203.57504216 70.00576584 C201.90588274 70.00564597 201.90588274 70.00564597 200.20300293 70.00552368 C198.53180878 70.00540104 198.53180878 70.00540104 196.82685313 70.00527592 C178.7714677 70.00446305 160.71616571 70.02359948 142.66080442 70.05180041 C124.12842983 70.08051831 105.59609594 70.09434129 87.06369853 70.09261286 C76.65649694 70.09194854 66.2493828 70.09745917 55.84220123 70.11896896 C46.98069633 70.13716644 38.11931848 70.14153996 29.25780299 70.12795012 C24.7363002 70.12141298 20.21504126 70.12133006 15.69356155 70.13865662 C11.55314013 70.15435973 7.4131565 70.15155213 3.27274594 70.13408835 C1.77609587 70.13101233 0.27941335 70.13467357 -1.21719846 70.1458085 C-9.24898458 70.20160076 -15.34441396 70.14778725 -22.14465332 65.63491821 C-25.92415818 61.65649204 -28.37027732 57.90899687 -28.4510498 52.36050415 C-28.4670372 51.52573547 -28.4830246 50.6909668 -28.49949646 49.8309021 C-28.50485916 48.93607117 -28.51022186 48.04124023 -28.51574707 47.11929321 C-28.52477554 46.18949646 -28.53380402 45.25969971 -28.54310608 44.30172729 C-28.55760257 42.3348614 -28.56649382 40.36794734 -28.57019043 38.40103149 C-28.58205724 35.40914333 -28.6312231 32.41933821 -28.6817627 29.42788696 C-28.69123106 27.51253239 -28.69846412 25.59716521 -28.70324707 23.68179321 C-28.72277939 22.7950592 -28.74231171 21.9083252 -28.76243591 20.99472046 C-28.71851199 14.87069909 -27.53411937 10.0946703 -23.14465332 5.63491821 C-16.27671535 -0.52970362 -8.79168888 -0.07124109 0 0 Z " fill="#1A1A1A" transform="translate(79.1446533203125,340.3650817871094)"/>
<path d="M0 0 C1.30880524 -0.00445784 2.61761049 -0.00891569 3.96607649 -0.01350862 C5.4324542 -0.01341931 6.8988319 -0.01322944 8.36520958 -0.01294994 C9.91216003 -0.01624749 11.45910962 -0.01997283 13.0060581 -0.02409142 C17.27308754 -0.03413218 21.54010291 -0.03783155 25.8071425 -0.04048073 C30.40308308 -0.04437771 34.99901246 -0.05395653 39.59494591 -0.0626936 C50.7028849 -0.08247634 61.81082484 -0.09252701 72.91877705 -0.10142139 C78.14678543 -0.10580177 83.37479279 -0.11116926 88.60280037 -0.11641026 C105.97747207 -0.13342518 123.35214314 -0.1479196 140.7268219 -0.155159 C145.23790678 -0.15706897 149.74899166 -0.15898929 154.26007652 -0.16094494 C155.38131819 -0.16142868 156.50255986 -0.16191242 157.65777855 -0.16241082 C175.82321774 -0.17071198 193.9885911 -0.19604919 212.15400155 -0.22852562 C230.79478939 -0.26158076 249.43554375 -0.2796064 268.07636106 -0.28280324 C278.54619639 -0.28496989 289.01593576 -0.29374104 299.48574257 -0.31926441 C308.4021858 -0.3409504 317.31850976 -0.34903223 326.23497637 -0.33929763 C330.78482327 -0.33474668 335.334424 -0.3366852 339.88423729 -0.35605907 C344.05063566 -0.37364711 348.21660745 -0.37272863 352.38301007 -0.35716178 C353.88914436 -0.35477905 355.39530784 -0.35914375 356.90139742 -0.37099043 C364.79635408 -0.42923725 371.14446189 -0.35495966 377.90411949 4.13422108 C382.00776535 8.34308863 382.99120216 11.76381286 383.11285973 17.50043201 C383.13215034 18.35522144 383.15144096 19.21001087 383.17131615 20.09070301 C383.22945764 23.99220531 383.27832528 27.89353317 383.30914879 31.79535389 C383.33072244 33.84760846 383.36481775 35.89977118 383.41168785 37.95160389 C383.47890231 40.92434871 383.50618111 43.89519721 383.52521324 46.86859608 C383.5530439 47.77720387 383.58087456 48.68581165 383.60954857 49.62195301 C383.59077836 55.49011427 382.35828408 58.86941339 378.68306541 63.45215321 C374.49241198 67.41459153 371.13841454 68.50937375 365.40506744 68.51453781 C364.4422515 68.52152769 364.4422515 68.52152769 363.45998472 68.52865878 C361.30631818 68.54062217 359.15328095 68.53120868 356.99960899 68.52190113 C355.44110412 68.52607348 353.88260228 68.53155046 352.3241061 68.53822094 C348.03906187 68.55270741 343.75420946 68.54842086 339.4691546 68.54105413 C334.84873336 68.53633263 330.22835423 68.54882331 325.6079464 68.55907154 C316.55505757 68.5762852 307.50223808 68.57709419 298.44933714 68.57185864 C291.09205237 68.56782029 283.73478813 68.56925651 276.37750435 68.5746069 C275.33111631 68.57535532 274.28472827 68.57610374 273.2066315 68.57687484 C271.08101329 68.57840629 268.95539508 68.57994464 266.82977687 68.58148981 C246.88681767 68.59522427 226.94389767 68.58977063 207.00093935 68.5783046 C188.75094299 68.56837236 170.50104802 68.58131106 152.2510673 68.60523879 C133.51864907 68.62961427 114.7862781 68.63924141 96.05384433 68.63258606 C85.53435371 68.62909024 75.01494107 68.63134974 64.49546242 68.64883709 C55.53989045 68.66353972 46.58445137 68.66421997 37.62888207 68.64676618 C33.05889554 68.63823759 28.48914659 68.63615183 23.91917229 68.65141773 C19.73566012 68.66521973 15.55259007 68.66055982 11.36910377 68.6411785 C9.85568106 68.63740432 8.34222331 68.64038118 6.82883169 68.65079015 C-7.33506919 68.74128076 -7.33506919 68.74128076 -13.09588051 64.13422108 C-16.4039751 59.86852015 -18.20593058 56.43019248 -18.25701332 51.033391 C-18.26662086 50.21211216 -18.27622841 49.39083332 -18.28612709 48.54466724 C-18.29037697 47.6602747 -18.29462685 46.77588215 -18.29900551 45.86468983 C-18.30470558 44.95093082 -18.31040565 44.03717182 -18.31627846 43.09572315 C-18.32572469 41.16154607 -18.33226094 39.22735293 -18.33611488 37.29315662 C-18.34580924 34.34340572 -18.37683149 31.39435501 -18.40838051 28.44476795 C-18.41491199 26.56391271 -18.42016189 24.68305249 -18.42400551 22.80218983 C-18.43635231 21.92386997 -18.44869911 21.04555012 -18.46142006 20.14061451 C-18.43988686 14.17999967 -17.58651123 9.78016953 -13.34197426 5.27093983 C-12.74513832 4.79269764 -12.14830238 4.31445545 -11.53338051 3.82172108 C-10.93396645 3.33058826 -10.33455238 2.83945545 -9.71697426 2.33343983 C-6.41091935 -0.11224417 -4.07546729 0.00641038 0 0 Z " fill="#171717" transform="translate(69.09588050842285,255.86577892303467)"/>
<path d="M0 0 C29.38515756 -0.11415179 58.77029935 -0.20259412 88.15563341 -0.25532665 C91.62768175 -0.26157991 95.09972966 -0.26805155 98.57177734 -0.2746582 C99.26297687 -0.27596976 99.95417639 -0.27728131 100.66632135 -0.2786326 C111.84672495 -0.30036777 123.02699954 -0.33977878 134.2073267 -0.38576398 C145.68603995 -0.43258143 157.16466259 -0.45993246 168.64346945 -0.47044247 C175.08819008 -0.47695692 181.53261843 -0.492252 187.97724533 -0.52865028 C194.0462016 -0.56264835 200.11474584 -0.57304499 206.1837883 -0.56553841 C208.40816488 -0.56691122 210.63255559 -0.57682053 212.85684967 -0.59602737 C215.90168009 -0.62102457 218.94496914 -0.61488036 221.98983765 -0.60127258 C222.86340924 -0.61583679 223.73698083 -0.630401 224.63702428 -0.64540654 C232.12914572 -0.55533331 238.60195437 1.86698288 244.15816343 6.98983878 C252.27933519 15.59401087 252.42301832 23.49549394 252.29296875 34.90234375 C252.287366 36.34965066 252.28309911 37.7969633 252.28010559 39.24427795 C252.26871009 43.03374232 252.23928949 46.82285584 252.20599365 50.61218262 C252.17517775 54.48684952 252.16157577 58.36157371 252.14648438 62.23632812 C252.11441388 69.82437783 252.06328279 77.41213955 252 85 C226.35677059 85.11687726 200.71358119 85.20500986 175.07013893 85.25906086 C163.16304233 85.28482639 151.25611137 85.31994559 139.34912109 85.37719727 C128.96921627 85.4270825 118.58943144 85.45930301 108.20941007 85.47044247 C102.71482002 85.47695249 97.22057319 85.4922189 91.72609329 85.52865028 C86.55012241 85.56269041 81.37463481 85.57303667 76.19856262 85.56553841 C74.30314377 85.56690936 72.40770808 85.57679383 70.51238632 85.59602737 C50.23846821 85.79160308 50.23846821 85.79160308 41.94846535 78.09541798 C37.59558382 73.56234789 34.72170862 68.33519275 31.9375 62.75 C31.45998291 61.81559082 30.98246582 60.88118164 30.49047852 59.91845703 C28.64361787 56.28725604 26.82067085 52.64436943 25 49 C24.1172629 47.23596487 23.23444479 45.47197028 22.3515625 43.70800781 C14.35642299 27.72741503 14.35642299 27.72741503 10.47827148 19.92089844 C9.77281189 18.50331741 9.77281189 18.50331741 9.05310059 17.05709839 C8.16290513 15.26799913 7.27430647 13.47810415 6.38757324 11.68728638 C5.98566772 10.88024261 5.58376221 10.07319885 5.16967773 9.24169922 C4.82170639 8.54051971 4.47373505 7.83934021 4.11521912 7.11691284 C2.8345158 4.6858773 1.42053864 2.35153612 0 0 Z " fill="#315467" transform="translate(243,17)"/>
<path d="M0 0 C0.71284141 -0.00538554 1.42568283 -0.01077108 2.16012549 -0.01631981 C4.53130716 -0.03054352 6.90192614 -0.02350972 9.27313232 -0.01637268 C10.98043768 -0.02207933 12.68773923 -0.02904474 14.39503479 -0.03717041 C19.02129956 -0.0550882 23.6473745 -0.05393556 28.27366352 -0.04822803 C32.14264782 -0.04513296 36.01159582 -0.05123245 39.88057494 -0.05726677 C49.01389963 -0.07130702 58.14713078 -0.06975599 67.28045654 -0.05836487 C76.68434784 -0.04689501 86.08795357 -0.0609414 95.49180722 -0.08776134 C103.58039642 -0.10996146 111.66889628 -0.1165457 119.75751376 -0.11068493 C124.58181262 -0.10732314 129.40592864 -0.10967805 134.23020172 -0.12693596 C138.77100627 -0.14247092 143.31139025 -0.13837732 147.85217857 -0.11963081 C149.51172242 -0.11596242 151.17129787 -0.11900194 152.83081245 -0.1295166 C163.52687603 -0.19207239 172.65483729 0.58113967 181.90106201 6.51268005 C188.50029935 13.5723293 192.44489928 22.83513564 196.68712425 31.43447495 C197.65483041 33.39584176 198.6278129 35.35451505 199.60206604 37.31263733 C201.66463342 41.46039253 203.72080683 45.6112978 205.77606201 49.76268005 C208.17071521 54.5993419 210.5680375 59.43464371 212.97210121 64.26663589 C213.92757639 66.19048666 214.87818099 68.11669167 215.82859802 70.04304504 C216.40962784 71.21171112 216.99065765 72.3803772 217.58929443 73.5844574 C218.351576 75.12473099 218.351576 75.12473099 219.1292572 76.69612122 C220.50396042 79.39089137 220.50396042 79.39089137 222.27601624 81.62538147 C223.58856201 83.38768005 223.58856201 83.38768005 223.58856201 85.38768005 C140.75856201 85.38768005 57.92856201 85.38768005 -27.41143799 85.38768005 C-27.41143799 15.46832522 -27.41143799 15.46832522 -18.53643799 6.45018005 C-12.88249867 1.63605181 -7.31491074 0.01399817 0 0 Z " fill="#263F53" transform="translate(44.41143798828125,16.612319946289063)"/>
<path d="M0 0 C121.11 0 242.22 0 367 0 C367 11.55 367 23.1 367 35 C245.89 35 124.78 35 0 35 C0 23.45 0 11.9 0 0 Z " fill="#AABABF" transform="translate(68,358)"/>
<path d="M0 0 C121.11 0 242.22 0 367 0 C367 11.22 367 22.44 367 34 C245.89 34 124.78 34 0 34 C0 22.78 0 11.56 0 0 Z " fill="#ADBEC3" transform="translate(68,273)"/>
<path d="M0 0 C1.0806221 -0.01004562 2.1612442 -0.02009125 3.27461243 -0.03044128 C4.46057007 -0.03627228 5.64652771 -0.04210327 6.86842346 -0.04811096 C8.1175502 -0.05789474 9.36667694 -0.06767853 10.65365601 -0.07775879 C14.80018684 -0.10774512 18.94668312 -0.12941909 23.09327698 -0.14796448 C23.80009275 -0.1512618 24.50690852 -0.15455912 25.23514295 -0.15795636 C31.90974923 -0.18875303 38.58436018 -0.21544475 45.25901699 -0.23237514 C53.77559001 -0.2542347 62.29152881 -0.29609925 70.80784839 -0.36581272 C76.80634446 -0.4132325 82.80467061 -0.43733304 88.80334812 -0.44457203 C92.37992165 -0.44950417 95.95578035 -0.46434687 99.53214836 -0.50431633 C103.53394488 -0.54844808 107.53435963 -0.54424649 111.53639221 -0.53639221 C112.70413177 -0.55639282 113.87187134 -0.57639343 115.07499695 -0.59700012 C124.02256593 -0.51858236 132.37141838 1.71777944 138.85402584 8.24384403 C144.18567205 14.81317019 145.31105465 21.59630989 145.15968323 29.90281677 C144.30923445 37.29109057 140.33074482 42.25279056 134.72608948 46.87156677 C134.08542542 47.2969574 133.44476135 47.72234802 132.78468323 48.16062927 C132.01944839 48.6735553 131.25421356 49.18648132 130.46578979 49.71495056 C124.99206135 51.86464456 119.77675108 51.59458963 113.9455719 51.58055115 C112.65217392 51.58902069 111.35877594 51.59749023 110.02618408 51.60621643 C106.48880003 51.62838163 102.95164927 51.63136555 99.41420531 51.62946892 C96.45470576 51.62934895 93.49525516 51.63792385 90.53576928 51.64624643 C83.54896433 51.66546354 76.56227885 51.66837096 69.57545471 51.66160583 C62.38395134 51.65497018 55.19296154 51.67781364 48.0015623 51.71491957 C41.81363617 51.74568135 35.62587466 51.7569695 29.43787366 51.75308275 C25.74813026 51.75102144 22.05878637 51.75639743 18.36911583 51.78097534 C14.24972788 51.80751027 10.13141403 51.79346555 6.01197815 51.77586365 C4.80076294 51.78912689 3.58954773 51.80239014 2.34162903 51.8160553 C-5.9214084 51.73417859 -11.99532517 50.2183346 -18.05769062 44.38910675 C-19.59069564 42.72271744 -20.91225778 41.01080598 -22.21531677 39.16062927 C-22.83406677 38.29437927 -23.45281677 37.42812927 -24.09031677 36.53562927 C-26.28212128 29.96021575 -26.25290379 22.32210162 -24.02781677 15.72312927 C-19.16709017 6.16928734 -10.97449722 0.08019354 0 0 Z " fill="#161616" transform="translate(324.21531677246094,33.83937072753906)"/>
<path d="M0 0 C0.77631271 -0.00671722 1.55262543 -0.01343445 2.35246277 -0.02035522 C4.91179865 -0.03930847 7.47087179 -0.04325838 10.03027344 -0.04541016 C11.81760769 -0.05184111 13.60494089 -0.0585697 15.39227295 -0.06558228 C19.13800495 -0.0775492 22.88364477 -0.08126382 26.62939453 -0.08007812 C31.41192917 -0.07987524 36.19386756 -0.10714846 40.97626114 -0.14162254 C44.66876906 -0.16394446 48.36113485 -0.16791401 52.05370331 -0.16685867 C53.81583455 -0.16920778 55.57797012 -0.17799214 57.34003448 -0.19352341 C74.95727327 -0.33423836 74.95727327 -0.33423836 82.13964844 4.29052734 C83.50089844 5.12583984 83.50089844 5.12583984 84.88964844 5.97802734 C91.00725303 12.2655654 93.58974696 19.66806894 93.47558594 28.31005859 C92.58512783 36.2102858 88.30274859 41.78972868 82.39746094 46.81787109 C76.73253831 50.51281197 71.87673524 51.73828413 65.15991211 51.71044922 C64.39466721 51.71891876 63.6294223 51.72738831 62.84098816 51.7361145 C60.32969194 51.75937191 57.81901263 51.76050924 55.30761719 51.75927734 C53.54795593 51.76638672 51.78829697 51.77408684 50.02864075 51.78234863 C46.34609531 51.79576834 42.66376416 51.79737398 38.98120117 51.79150391 C34.28385232 51.7856161 29.58753999 51.81617257 24.89039135 51.85662079 C21.2570094 51.88259253 17.62387372 51.88536655 13.99041176 51.88172913 C12.25980339 51.88341213 10.52918263 51.89297498 8.798666 51.91087341 C-1.51783206 52.0058257 -10.732178 51.94003102 -18.74763489 44.55065918 C-25.52922744 37.39759596 -26.49481029 30.53951109 -26.26660156 20.88818359 C-25.37321502 12.97655855 -20.72610103 8.76688273 -14.92285156 3.73583984 C-10.151287 0.39212983 -5.69602818 -0.00711811 0 0 Z " fill="#171818" transform="translate(256.8603515625,426.70947265625)"/>
<path d="M0 0 C3.87653669 3.36693785 6.41381507 6.97817056 8.98828125 11.39453125 C9.33634323 11.98674973 9.68440521 12.5789682 10.04301453 13.18913269 C11.14007003 15.05947202 12.22640802 16.93577744 13.3125 18.8125 C14.05984354 20.09090621 14.80788408 21.36890524 15.55664062 22.64648438 C17.37917002 25.75965956 19.19214914 28.87827264 21 32 C23.88178621 28.54328004 26.27212179 25.03811588 28.53125 21.1484375 C29.49998047 19.50101563 29.49998047 19.50101563 30.48828125 17.8203125 C31.49726587 16.09230389 32.50621772 14.36426713 33.50927734 12.6328125 C34.48848314 10.94627002 35.47849265 9.26601485 36.46875 7.5859375 C37.05076172 6.5861084 37.63277344 5.5862793 38.23242188 4.55615234 C39.97750716 2.03252762 41.38359175 0.5704958 44 -1 C47.92721068 -1.58490372 49.48108543 -1.34594305 52.8125 0.875 C55.49320701 3.47911538 55.960531 4.23793437 56.15390015 7.97149658 C56.16676056 9.24579529 56.17962097 10.52009399 56.19287109 11.83300781 C56.20513733 12.88700523 56.20513733 12.88700523 56.21765137 13.96229553 C56.2425051 16.29256335 56.25902276 18.62277017 56.2734375 20.953125 C56.27876118 21.749179 56.28408485 22.545233 56.28956985 23.36540985 C56.31630359 27.58034808 56.33567621 31.79525668 56.35009766 36.01025391 C56.36673053 40.35944552 56.41149534 44.70787714 56.4624691 49.05678177 C56.49616499 52.40430549 56.50767767 55.7516495 56.51332474 59.09932709 C56.52003268 60.70209296 56.53524307 62.30484719 56.55921555 63.90744781 C56.59091801 66.1553946 56.59089745 68.40130145 56.58349609 70.64941406 C56.59158295 71.92689514 56.5996698 73.20437622 56.60800171 74.52056885 C55.80527281 79.11437164 54.2708501 80.73172965 51 84 C48.9375 84.796875 48.9375 84.796875 47 84.75 C46.0409375 84.77320313 46.0409375 84.77320313 45.0625 84.796875 C41.72570224 83.50765768 39.78062812 80.99861594 38 78 C37.29985545 75.17025843 37.27786409 72.44461074 37.29296875 69.5390625 C37.27784744 68.74849457 37.26272614 67.95792664 37.24714661 67.1434021 C37.20441654 64.63697461 37.19544648 62.13175476 37.1875 59.625 C37.16434405 57.91793697 37.13897642 56.21090243 37.11132812 54.50390625 C37.04862175 50.33583145 37.01617174 46.16850457 37 42 C36.37351562 42.98742187 35.74703125 43.97484375 35.1015625 44.9921875 C34.27617582 46.28654389 33.45064761 47.58081004 32.625 48.875 C32.00625 49.85146484 32.00625 49.85146484 31.375 50.84765625 C29.71997146 53.43697509 28.18002621 55.81997379 26 58 C22.92065623 58.62917829 20.0852131 58.58150613 17 58 C14.5836922 55.92887903 13.57127196 54.66680961 12 52 C11.41814941 51.01290039 10.83629883 50.02580078 10.23681641 49.00878906 C9.61468262 47.93854492 8.99254883 46.86830078 8.3515625 45.765625 C7.40917725 44.14575684 7.40917725 44.14575684 6.44775391 42.49316406 C5.96999512 41.67041992 5.49223633 40.84767578 5 40 C4.99383667 41.73286255 4.99383667 41.73286255 4.98754883 43.50073242 C4.96573676 47.79691869 4.91142598 52.09219179 4.84741211 56.38793945 C4.82425012 58.24527213 4.8098406 60.10273582 4.80444336 61.96020508 C4.79514038 64.634455 4.75412303 67.30664968 4.70703125 69.98046875 C4.71293022 71.2213752 4.71293022 71.2213752 4.71894836 72.48735046 C4.6111614 76.76978929 4.36664962 78.52168593 1.6784668 82.02856445 C-1 84 -1 84 -4.5625 84.5625 C-8.48101711 83.92128811 -9.62558226 83.10500781 -12 80 C-13.46965208 77.06069585 -13.15171072 74.43273454 -13.17700195 71.15112305 C-13.18357315 70.44685181 -13.19014435 69.74258057 -13.19691467 69.01696777 C-13.21665551 66.68188372 -13.22831214 64.34686401 -13.23828125 62.01171875 C-13.24235678 61.2144166 -13.2464323 60.41711445 -13.25063133 59.59565163 C-13.27149576 55.3753752 -13.28579565 51.15513132 -13.29516602 46.93481445 C-13.30622934 42.57667482 -13.34062683 38.21904594 -13.38033772 33.86108685 C-13.40648983 30.5093135 -13.41485659 27.15766207 -13.41844749 23.80579567 C-13.42331739 22.19943608 -13.43494294 20.59308208 -13.45348549 18.98682213 C-13.47784761 16.73649071 -13.47691803 14.48748361 -13.4699707 12.23706055 C-13.47583694 10.95735886 -13.48170319 9.67765717 -13.48774719 8.35917664 C-12.91645004 4.42458088 -11.77294523 2.79220699 -9 0 C-5.77509551 -1.61245225 -3.43772273 -0.81573082 0 0 Z " fill="#1B1B1B" transform="translate(337,146)"/>
<path d="M0 0 C7.18270282 4.08790482 12.23633516 10.06223663 14.6875 18 C15.13602741 21.37027875 15.17895116 24.70842323 15.19140625 28.10546875 C15.20139145 29.06592606 15.21137665 30.02638336 15.22166443 31.01594543 C15.23679794 33.04224364 15.2438917 35.06861604 15.2434082 37.0949707 C15.24994481 40.16160556 15.30440779 43.22495611 15.36132812 46.29101562 C15.45404551 56.98609115 15.510326 66.17633946 8.6875 75 C2.76706095 80.77338186 -3.35850353 83.27416469 -11.6875 83.375 C-18.70929795 83.23137231 -23.06183616 81.96828294 -28.24609375 77.234375 C-35.27012609 69.81606226 -36.77911135 62.4201248 -36.78125 52.5078125 C-36.78886353 51.52183075 -36.79647705 50.535849 -36.80432129 49.51998901 C-36.81507647 47.44417845 -36.81799415 45.36831398 -36.81347656 43.29248047 C-36.81250483 40.14067056 -36.85416853 36.99130268 -36.8984375 33.83984375 C-36.90364603 31.81250502 -36.90633267 29.78515792 -36.90625 27.7578125 C-36.92264526 26.82832794 -36.93904053 25.89884338 -36.95593262 24.94119263 C-36.87368345 17.03592643 -34.48727478 10.3922251 -29.03125 4.5625 C-27.93296875 3.7890625 -27.93296875 3.7890625 -26.8125 3 C-26.0803125 2.46375 -25.348125 1.9275 -24.59375 1.375 C-16.91261034 -3.25472801 -8.20873748 -3.72782115 0 0 Z " fill="#181818" transform="translate(224.3125,147)"/>
<path d="M0 0 C1.64500488 -0.02320313 1.64500488 -0.02320313 3.32324219 -0.046875 C4.4734082 -0.02753906 5.62357422 -0.00820312 6.80859375 0.01171875 C8.56671387 0.03105469 8.56671387 0.03105469 10.36035156 0.05078125 C20.05440151 0.34298259 27.1868287 1.52909331 34.20703125 8.703125 C39.45027102 15.18948031 40.72164698 21.08657517 40.65625 29.3359375 C40.12021035 33.73146261 38.52872627 36.79695051 36.14453125 40.48046875 C34.98381083 42.70025521 34.98381083 42.70025521 35.91015625 45.10546875 C36.83975328 46.91030041 37.80616108 48.69644828 38.80029297 50.46655273 C41.23337684 55.90668505 40.7585628 61.38567927 40.74609375 67.26171875 C40.77445312 68.48052734 40.8028125 69.69933594 40.83203125 70.95507812 C40.85383358 80.89148871 40.85383358 80.89148871 37.9375 84.00390625 C34.39667773 86.23426454 32.35665218 86.37185558 28.24609375 85.69921875 C25.88111936 83.8321337 24.5857866 82.37860444 23.24609375 79.69921875 C23.15232075 78.00585276 23.11430636 76.30921864 23.10546875 74.61328125 C23.08613281 73.60007812 23.06679688 72.586875 23.046875 71.54296875 C23.01314706 69.40513625 22.99480131 67.2670032 22.9921875 65.12890625 C22.91390404 59.21378801 22.91390404 59.21378801 20.38671875 54.03515625 C15.77694357 52.07428173 11.21553227 51.87327964 6.24609375 51.69921875 C6.2618042 52.52123779 6.27751465 53.34325684 6.29370117 54.19018555 C6.35614448 57.92229303 6.39511511 61.65429047 6.43359375 65.38671875 C6.45873047 66.68029297 6.48386719 67.97386719 6.50976562 69.30664062 C6.51943359 70.55380859 6.52910156 71.80097656 6.5390625 73.0859375 C6.55477295 74.23280029 6.5704834 75.37966309 6.58666992 76.5612793 C6.20784842 80.05159673 5.33451277 81.90566874 3.24609375 84.69921875 C0.18916053 86.22768536 -2.38375172 85.9316432 -5.75390625 85.69921875 C-8.93894195 83.93906744 -9.58687597 83.20030959 -10.75390625 79.69921875 C-10.86918998 77.34976697 -10.92337976 74.99718163 -10.94677734 72.64501953 C-10.95495483 71.93084869 -10.96313232 71.21667786 -10.97155762 70.48086548 C-10.99635951 68.11876253 -11.01291249 65.75671938 -11.02734375 63.39453125 C-11.03266743 62.58711361 -11.0379911 61.77969597 -11.0434761 60.94781113 C-11.07018263 56.6756663 -11.08956712 52.40355047 -11.10400391 48.13134766 C-11.11735433 44.59657986 -11.14522985 41.06238782 -11.18603516 37.52783203 C-11.23532801 33.25789045 -11.26012027 28.98847188 -11.26723099 24.7182579 C-11.27394572 23.09233769 -11.28917375 21.46642925 -11.3131218 19.84067154 C-11.34475134 17.56389759 -11.34481501 15.28914309 -11.33740234 13.01220703 C-11.3454892 11.71775665 -11.35357605 10.42330627 -11.36190796 9.08963013 C-10.21249238 2.68012239 -6.25987681 0.07615919 0 0 Z " fill="#171717" transform="translate(266.75390625,144.30078125)"/>
<path d="M0 0 C1.21350128 -0.00394272 2.42700256 -0.00788544 3.67727661 -0.01194763 C6.99797934 -0.0175047 10.31712135 -0.00077929 13.63762021 0.02653241 C17.11508075 0.05039515 20.59252527 0.04741771 24.0700531 0.0478363 C29.90834002 0.05246158 35.74630042 0.07608521 41.58447266 0.11230469 C48.33226904 0.15405621 55.07977157 0.17162083 61.82768971 0.17492443 C69.01594886 0.1785253 76.20410246 0.19740013 83.39231753 0.22204471 C85.46209745 0.22826983 87.53186932 0.23190832 89.60165596 0.23507881 C93.45849557 0.24208108 97.31511775 0.26647664 101.171875 0.29296875 C102.89178398 0.29396576 102.89178398 0.29396576 104.6464386 0.29498291 C105.69648071 0.30495804 106.74652283 0.31493317 107.8283844 0.32521057 C109.19580198 0.33218633 109.19580198 0.33218633 110.59084415 0.33930302 C113.2272845 0.62141281 114.80419031 1.1581903 117.02124023 2.59936523 C119.52155678 6.34984005 119.55727578 8.15792789 119.02124023 12.59936523 C117.24731445 15.28549194 117.24731445 15.28549194 114.02124023 17.59936523 C110.00822642 18.3524779 106.03965097 18.28211179 101.96655273 18.24633789 C100.74490417 18.25509949 99.52325562 18.26386108 98.2645874 18.27288818 C94.92113343 18.29110728 91.57922938 18.2868632 88.23586273 18.27099276 C84.73347424 18.25831312 81.23115092 18.27007957 77.72875977 18.27792358 C71.84761699 18.28701423 65.9667884 18.27504794 60.08569336 18.2512207 C53.29113906 18.22401007 46.49733496 18.23282469 39.70279884 18.26035273 C33.86396181 18.28305982 28.02535032 18.28623622 22.18648338 18.27315938 C18.70144737 18.26537347 15.21676371 18.26429901 11.73175049 18.28084183 C7.84618076 18.29799844 3.9614479 18.27420463 0.07592773 18.24633789 C-1.65261444 18.26151962 -1.65261444 18.26151962 -3.41607666 18.27700806 C-11.18363266 18.17367487 -11.18363266 18.17367487 -15.19311523 15.27767944 C-17.56856487 11.71470797 -17.72904813 9.80098009 -16.97875977 5.59936523 C-12.63213709 -0.91014073 -7.11144416 -0.09216748 0 0 Z " fill="#263F53" transform="translate(332.978759765625,50.400634765625)"/>
<path d="M0 0 C0.85095749 -0.00570007 1.70191498 -0.01140015 2.57865906 -0.01727295 C4.38177241 -0.02672798 6.18490308 -0.03325892 7.98803711 -0.03710938 C10.74038073 -0.04679987 13.49197283 -0.07781175 16.24414062 -0.109375 C17.99608932 -0.11590663 19.74804335 -0.12115647 21.5 -0.125 C22.73149529 -0.1435202 22.73149529 -0.1435202 23.98786926 -0.16241455 C28.63256067 -0.14440473 31.69153493 0.17068615 35.44921875 3.203125 C37.44921875 6.203125 37.44921875 6.203125 37.38671875 9.640625 C36.2474921 13.96968628 35.18843726 14.85437765 31.44921875 17.203125 C28.21948242 17.65722656 28.21948242 17.65722656 24.6171875 17.59375 C22.67875977 17.57441406 22.67875977 17.57441406 20.70117188 17.5546875 C19.34634329 17.52127134 17.99152558 17.48741162 16.63671875 17.453125 C15.26239558 17.43304534 13.88804436 17.41479713 12.51367188 17.3984375 C9.15855295 17.35134811 5.80379636 17.27960682 2.44921875 17.203125 C2.44921875 22.813125 2.44921875 28.423125 2.44921875 34.203125 C5.01703125 34.1103125 5.01703125 34.1103125 7.63671875 34.015625 C12.07467996 34.00991334 14.96926842 34.18716804 18.44921875 37.203125 C20.06330354 40.43129459 20.02180313 43.71242984 19.44921875 47.203125 C17.63671875 49.703125 17.63671875 49.703125 14.44921875 51.203125 C12.55197646 51.30539302 10.6496995 51.33047322 8.75 51.296875 C7.26173706 51.27657227 7.26173706 51.27657227 5.7434082 51.25585938 C4.60778442 51.22975586 4.60778442 51.22975586 3.44921875 51.203125 C3.47540283 52.01990723 3.50158691 52.83668945 3.52856445 53.67822266 C3.63278088 57.39465954 3.69762674 61.11078861 3.76171875 64.828125 C3.80361328 66.11332031 3.84550781 67.39851563 3.88867188 68.72265625 C4.02685983 79.39076601 4.02685983 79.39076601 1.1796875 83.0546875 C-2.59485141 86.02463943 -2.59485141 86.02463943 -5.55078125 85.953125 C-6.50984375 85.97632813 -6.50984375 85.97632813 -7.48828125 86 C-10.80189402 84.71974052 -12.73405886 82.15204841 -14.55078125 79.203125 C-15.17897034 75.74388123 -15.17897034 75.74388123 -15.18188477 71.90014648 C-15.19261772 70.84286346 -15.19261772 70.84286346 -15.2035675 69.76422119 C-15.22038256 67.4502139 -15.20109939 65.13816378 -15.1796875 62.82421875 C-15.18051678 61.20809266 -15.18297841 59.59196665 -15.18699646 57.97584534 C-15.18984938 54.5956979 -15.17520205 51.21621497 -15.14770508 47.83618164 C-15.11359504 43.50939932 -15.11965397 39.18380253 -15.13836765 34.85696316 C-15.14894834 31.52226422 -15.13999073 28.18783999 -15.12498283 24.85316658 C-15.1198102 23.25801472 -15.12027167 21.66283406 -15.12652779 20.06768608 C-15.13199437 17.83673509 -15.11156343 15.60746791 -15.08422852 13.37670898 C-15.07802994 12.10907211 -15.07183136 10.84143524 -15.06544495 9.53538513 C-14.46288219 5.6340106 -13.29971863 3.98162149 -10.55078125 1.203125 C-7.26345757 -0.44053684 -3.61423905 0.01857168 0 0 Z " fill="#1B1B1B" transform="translate(133.55078125,144.796875)"/>
<path d="M0 0 C5.5122786 3.42986224 8.96722885 8.90168654 11 15 C11.78943293 23.77398312 11.73859439 30.99257066 6 38 C1.43992275 42.81459319 -3.64462385 46.5679272 -10.3671875 47.43359375 C-17.49335638 47.44152935 -23.1197293 47.26220964 -29 43 C-29.82757813 42.40832031 -30.65515625 41.81664062 -31.5078125 41.20703125 C-36.45551968 36.82544104 -39.31195682 30.57104101 -40.5546875 24.12109375 C-40.93555733 16.24604991 -38.3942838 9.77063744 -33.1328125 3.92578125 C-22.8788015 -5.59010055 -12.17979506 -6.2638946 0 0 Z " fill="#161616" transform="translate(74,38)"/>
<path d="M0 0 C3.14430685 2.52814975 5.61441439 5.26175014 7.93359375 8.5546875 C8.55234375 9.4209375 9.17109375 10.2871875 9.80859375 11.1796875 C12.42610876 19.03223252 11.83944602 27.15867018 8.19921875 34.5546875 C3.76944218 41.55482826 -1.34357099 44.72766175 -9.06640625 47.5546875 C-15.99934935 48.89047844 -21.66665498 47.61456302 -27.7734375 44.16796875 C-33.97687844 39.8033672 -38.52373072 34.0614568 -40.06640625 26.5546875 C-41.17942939 17.97049653 -38.94711792 11.10341749 -33.75390625 4.2421875 C-24.92378936 -4.58792939 -10.73723499 -6.97427741 0 0 Z " fill="#191919" transform="translate(202.06640625,430.4453125)"/>
<path d="M0 0 C7.14468623 4.02101578 12.46275828 10.06192578 14.75 18 C16.11957403 26.80440447 13.76333755 33.72428767 8.75 41 C3.05583455 46.84103877 -3.42672086 49.26862546 -11.5625 49.4375 C-18.90028329 49.30378185 -23.71068917 47.3448432 -29.02734375 42.3203125 C-30.57500142 40.61751067 -31.92585883 38.8801107 -33.25 37 C-33.86875 36.13375 -34.4875 35.2675 -35.125 34.375 C-37.31680451 27.79958648 -37.28758701 20.16147235 -35.0625 13.5625 C-28.46482348 0.59465304 -13.89513988 -6.3411205 0 0 Z " fill="#161717" transform="translate(207.25,36)"/>
<path d="M0 0 C5.32675134 3.55116756 9.38930156 7.68985201 11 14 C11.83909362 21.67849826 12.63424541 29.90612307 7.625 36.32421875 C2.25450262 41.86254418 -2.28411264 46.51545243 -10.26953125 47.3359375 C-20.0527305 47.44380078 -25.66876422 46.30928389 -32.8125 39.625 C-37.24520287 35.18176815 -39.35882615 30.56051251 -39.51928711 24.23974609 C-39.51292236 23.56250488 -39.50655762 22.88526367 -39.5 22.1875 C-39.49427979 21.48189941 -39.48855957 20.77629883 -39.48266602 20.04931641 C-39.20917947 12.03993612 -36.41914177 7.06949046 -30.75 1.625 C-21.32929949 -5.71580559 -10.09148735 -5.94050992 0 0 Z " fill="#171716" transform="translate(142,38)"/>
<path d="M0 0 C0.73382401 -0.00861557 1.46764801 -0.01723114 2.22370911 -0.02610779 C4.64567497 -0.0487814 7.06648496 -0.04202665 9.48852539 -0.03295898 C11.17477258 -0.0381943 12.86101683 -0.04447044 14.54725647 -0.05174255 C18.08047266 -0.06214952 21.61328619 -0.05758174 25.14648438 -0.04296875 C29.67071539 -0.02578723 34.19367567 -0.04926575 38.71776485 -0.08445835 C42.20000092 -0.10643784 45.68193323 -0.10498952 49.164217 -0.09669304 C50.83195959 -0.09587367 52.49972452 -0.10273431 54.16740227 -0.11746407 C56.50171438 -0.13491987 58.83374761 -0.12036234 61.16796875 -0.09765625 C62.1975621 -0.11519455 62.1975621 -0.11519455 63.24795532 -0.13308716 C67.03904254 -0.058197 68.58472292 0.4821487 71.58106995 2.88539124 C73.64868164 5.53344727 73.64868164 5.53344727 74.21118164 8.53344727 C73.52510507 12.19252231 72.2213385 13.88512402 69.64868164 16.53344727 C66.68899116 18.01329251 64.01125877 17.69351639 60.70800781 17.72631836 C59.6369706 17.73858459 59.6369706 17.73858459 58.54429626 17.75109863 C56.17675619 17.77595028 53.80927607 17.79246807 51.44165039 17.80688477 C50.63331568 17.81220844 49.82498096 17.81753212 48.99215126 17.82301712 C44.71352715 17.8497479 40.43493221 17.86912286 36.15625 17.88354492 C31.73746395 17.90019162 27.31942392 17.94496895 22.90091991 17.99591637 C19.50282437 18.02957732 16.10490614 18.04112101 12.70665932 18.046772 C11.07794812 18.05348789 9.44924873 18.06871891 7.82069969 18.09266281 C5.5390284 18.12429478 3.25937218 18.12435538 0.97753906 18.11694336 C-0.96866081 18.12907364 -0.96866081 18.12907364 -2.95417786 18.14144897 C-7.21626048 17.37864464 -8.6797863 15.86396519 -11.35131836 12.53344727 C-12.25869977 9.50696392 -11.81564969 7.78376657 -11.35131836 4.53344727 C-8.23255759 0.15377271 -5.0481184 -0.04785366 0 0 Z " fill="#3479BC" transform="translate(259.351318359375,443.466552734375)"/>
<path d="M0 0 C3.65907504 0.68607657 5.35167676 1.98984314 8 4.5625 C9.64366184 7.84982368 9.18455332 11.4990422 9.203125 15.11328125 C9.20882507 15.96423874 9.21452515 16.81519623 9.22039795 17.69194031 C9.22985298 19.49505366 9.23638392 21.29818433 9.24023438 23.10131836 C9.24992487 25.85366198 9.28093675 28.60525408 9.3125 31.35742188 C9.31903163 33.10937057 9.32428147 34.8613246 9.328125 36.61328125 C9.3404718 37.43427811 9.3528186 38.25527496 9.36553955 39.10115051 C9.34753929 43.74337484 9.01932262 46.79294095 6 50.5625 C2.86128812 52.13185594 0.46144178 51.91451103 -3 51.5625 C-5.76047504 49.56745902 -7.67044794 47.97618312 -8.46685791 44.55981445 C-8.66222852 42.12003214 -8.69302338 39.72871851 -8.6640625 37.28125 C-8.66884613 36.39014526 -8.67362976 35.49904053 -8.67855835 34.58093262 C-8.68195272 32.70156076 -8.67278262 30.8221295 -8.65185547 28.94287109 C-8.62508156 26.07124802 -8.65161711 23.20353321 -8.68359375 20.33203125 C-8.68028957 18.50259557 -8.67388316 16.67316231 -8.6640625 14.84375 C-8.67418365 13.98841675 -8.68430481 13.1330835 -8.69473267 12.25183105 C-8.60904793 7.87900797 -8.40392958 6.08498596 -5.64599609 2.51757812 C-3 0.5625 -3 0.5625 0 0 Z " fill="#D5DDE1" transform="translate(213,161.4375)"/>
<path d="M0 0 C0.33 0 0.66 0 1 0 C1 10.89 1 21.78 1 33 C-10.22 33 -21.44 33 -33 33 C-30.24267086 31.62133543 -27.58659594 30.41320841 -24.75 29.25 C-14.05980662 24.49295172 -6.51932789 16.75513128 -2 6 C-1.29094062 4.01463373 -0.60578253 2.01927511 0 0 Z " fill="#000000" transform="translate(511,479)"/>
<path d="M0 0 C1.64908544 2.47362816 2.65514453 4.47437131 3.75 7.1875 C8.47130009 17.91931128 16.22511313 25.47237077 27 30 C28.98536627 30.70905938 30.98072489 31.39421747 33 32 C33 32.33 33 32.66 33 33 C22.11 33 11.22 33 0 33 C0 22.11 0 11.22 0 0 Z " fill="#000000" transform="translate(0,479)"/>
<path d="M0 0 C10.89 0 21.78 0 33 0 C33 10.89 33 21.78 33 33 C31.35091456 30.52637184 30.34485547 28.52562869 29.25 25.8125 C24.52869991 15.08068872 16.77488687 7.52762923 6 3 C4.01463373 2.29094062 2.01927511 1.60578253 0 1 C0 0.67 0 0.34 0 0 Z " fill="#000000" transform="translate(479,0)"/>
<path d="M0 0 C10.89 0 21.78 0 33 0 C30.52637184 1.64908544 28.52562869 2.65514453 25.8125 3.75 C15.08068872 8.47130009 7.52762923 16.22511313 3 27 C2.29094062 28.98536627 1.60578253 30.98072489 1 33 C0.67 33 0.34 33 0 33 C0 22.11 0 11.22 0 0 Z " fill="#000000" transform="translate(0,0)"/>
<path d="M0 0 C10.98214286 -0.66964286 10.98214286 -0.66964286 14.6875 2.0625 C17 5 17 5 17.6875 8.5 C17 12 17 12 15.25 14.9375 C10.20635452 18.13827502 5.89942252 17.32414409 0 17 C0 11.39 0 5.78 0 0 Z " fill="#D4DCE0" transform="translate(273,162)"/>
<path d="M0 0 C4.45850936 0.79616239 5.90783917 1.93313458 8.5 5.625 C9.12601538 9.58976406 9.15946039 11.62262021 6.9375 15 C3.67160572 17.17726285 1.42016134 17.625 -2.5 17.625 C-5.30189446 15.85858828 -7.01524911 14.59450178 -8.5 11.625 C-9.03507099 7.6119676 -8.83051628 6.08571967 -6.4375 2.75 C-3.5 0.625 -3.5 0.625 0 0 Z " fill="#F6F6F6" transform="translate(187.5,443.375)"/>
<path d="M0 0 C3.80470451 0.7133821 5.41196019 1.67868421 8 4.5625 C8.93605213 8.05709462 9.3742539 10.40855048 8.25 13.875 C7 15.5625 7 15.5625 4 17.5625 C-0.36253463 18.12801375 -2.29752588 18.05572651 -5.9375 15.5 C-8 12.5625 -8 12.5625 -8.625 9.0625 C-7.67703424 3.75389177 -5.38444917 1.00958422 0 0 Z " fill="#56BA99" transform="translate(196,50.4375)"/>
<path d="M0 0 C2.4375 1.625 2.4375 1.625 4 4 C4.72125695 8.40768137 4.52001338 10.25937488 1.9375 13.9375 C-1.74062512 16.52001338 -3.59231863 16.72125695 -8 16 C-11.27522945 13.84524379 -11.90229594 12.3358577 -13 8.5625 C-13 5 -13 5 -11.1875 2.125 C-7.34864131 -1.60417702 -5.15505453 -1.15544326 0 0 Z " fill="#CC2E3D" transform="translate(64,52)"/>
<path d="M0 0 C3.7742893 1.16659851 5.30801297 1.74050024 7.4375 5.0625 C8.04863838 7.87027729 8.09216318 10.26008219 7.4375 13.0625 C4.72457652 16.3508921 3.08933071 16.97101499 -1.125 17.5625 C-4.5625 17.0625 -4.5625 17.0625 -7 15.5625 C-9.17282082 12.08598669 -9.44675242 8.98733969 -8.5625 5.0625 C-5.92505032 1.14628685 -4.76629682 0.08361924 0 0 Z " fill="#F1B92F" transform="translate(128.5625,50.9375)"/>
<path d="M0 0 C2.64 1.65 5.28 3.3 8 5 C8.63739283 8.25389037 8.79474376 10.14117047 8.5 13.3125 C8.46390625 14.05306641 8.4278125 14.79363281 8.390625 15.55664062 C8.29685979 17.3733416 8.1533611 19.18735698 8 21 C7.05125 21.45375 6.1025 21.9075 5.125 22.375 C1.99686321 23.80238254 1.99686321 23.80238254 0 26 C0 17.42 0 8.84 0 0 Z " fill="#000000" transform="translate(0,158)"/>
</svg>
